<svg width="324" height="32" viewBox="0 0 324 32" fill="none" xmlns="http://www.w3.org/2000/svg">
<path d="M297.304 21.045V14.3797C297.304 14.0881 297.362 13.7994 297.473 13.53C297.585 13.2606 297.748 13.0158 297.955 12.8097C298.161 12.6035 298.406 12.44 298.675 12.3285C298.945 12.2169 299.233 12.1596 299.525 12.1597H301.491C302.078 12.1609 302.641 12.395 303.056 12.8107C303.47 13.2265 303.703 13.7898 303.703 14.3771V15.7957C303.703 16.3847 303.469 16.9495 303.053 17.3659C302.637 17.7824 302.072 18.0164 301.483 18.0164H298.703" stroke="white" stroke-width="0.484754" stroke-linecap="round" stroke-linejoin="round"/>
<path d="M304.255 12.1587H305.107C305.349 12.1587 305.581 12.2547 305.752 12.4257C305.922 12.5966 306.018 12.8284 306.018 13.0702V18.0501" stroke="white" stroke-width="0.484754" stroke-linecap="round" stroke-linejoin="round"/>
<path d="M305.834 11.3874L305.448 11.0001C305.425 10.9773 305.407 10.9502 305.394 10.9203C305.382 10.8904 305.376 10.8584 305.376 10.8261C305.376 10.7938 305.382 10.7618 305.394 10.7319C305.407 10.7021 305.425 10.675 305.448 10.6522L305.834 10.2656C305.857 10.2427 305.884 10.2245 305.914 10.2121C305.944 10.1997 305.976 10.1934 306.008 10.1934C306.041 10.1934 306.073 10.1997 306.103 10.2121C306.132 10.2245 306.159 10.2427 306.182 10.2656L306.57 10.6522C306.592 10.675 306.611 10.7021 306.623 10.7319C306.635 10.7618 306.642 10.7938 306.642 10.8261C306.642 10.8584 306.635 10.8904 306.623 10.9203C306.611 10.9502 306.592 10.9773 306.57 11.0001L306.182 11.3874C306.159 11.4102 306.132 11.4284 306.103 11.4408C306.073 11.4532 306.041 11.4595 306.008 11.4595C305.976 11.4595 305.944 11.4532 305.914 11.4408C305.884 11.4284 305.857 11.4102 305.834 11.3874Z" fill="white"/>
<path d="M307.658 12.1548H308.505C308.94 12.1549 309.358 12.3279 309.666 12.6357L311.646 14.6153C311.707 14.6764 311.779 14.7249 311.859 14.758C311.938 14.7911 312.024 14.8081 312.11 14.8081C312.196 14.8081 312.282 14.7911 312.361 14.758C312.441 14.7249 312.513 14.6764 312.574 14.6153L314.549 12.643C314.702 12.4904 314.883 12.3695 315.082 12.2869C315.281 12.2044 315.495 12.162 315.71 12.162H316.398" stroke="white" stroke-width="0.484754" stroke-linecap="round" stroke-linejoin="round"/>
<path d="M307.658 18.0057H308.505C308.94 18.0056 309.358 17.8326 309.666 17.5247L311.646 15.5459C311.707 15.4847 311.779 15.4362 311.859 15.4032C311.938 15.3701 312.024 15.353 312.11 15.353C312.196 15.353 312.282 15.3701 312.361 15.4032C312.441 15.4362 312.513 15.4847 312.574 15.5459L314.549 17.5175C314.702 17.67 314.883 17.791 315.082 17.8735C315.281 17.9561 315.495 17.9985 315.71 17.9985H316.398" stroke="white" stroke-width="0.484754" stroke-linecap="round" stroke-linejoin="round"/>
<path d="M292.257 19.2703C292.048 19.2709 291.841 19.2301 291.648 19.1501C291.455 19.0701 291.28 18.9526 291.132 18.8044L289.508 17.184C289.451 17.1289 289.374 17.0981 289.295 17.0981C289.215 17.0981 289.139 17.1289 289.081 17.184L287.451 18.8136C287.304 18.9618 287.128 19.0793 286.935 19.1593C286.742 19.2393 286.535 19.2801 286.326 19.2795H286.006L288.063 21.337C288.372 21.6454 288.79 21.8186 289.227 21.8186C289.663 21.8186 290.081 21.6454 290.39 21.337L292.453 19.2736L292.257 19.2703Z" fill="white"/>
<path d="M286.326 13.5248C286.535 13.5244 286.742 13.5653 286.935 13.6452C287.128 13.7252 287.304 13.8426 287.451 13.9907L289.081 15.621C289.138 15.6775 289.215 15.7092 289.295 15.7092C289.375 15.7092 289.451 15.6775 289.508 15.621L291.132 13.9966C291.28 13.8485 291.455 13.7311 291.648 13.6511C291.841 13.5712 292.048 13.5303 292.257 13.5307H292.454L290.391 11.468C290.238 11.3151 290.057 11.1939 289.857 11.1112C289.658 11.0284 289.444 10.9858 289.228 10.9858C289.012 10.9858 288.798 11.0284 288.598 11.1112C288.399 11.1939 288.217 11.3151 288.064 11.468L286.008 13.5248H286.326Z" fill="white"/>
<path d="M294.16 15.2372L292.915 13.9922C292.886 14.0035 292.856 14.0095 292.826 14.0099H292.259C291.964 14.0112 291.682 14.1289 291.473 14.3376L289.846 15.9587C289.774 16.0311 289.688 16.0885 289.593 16.1276C289.499 16.1668 289.397 16.1868 289.295 16.1867C289.088 16.1871 288.89 16.1053 288.743 15.9593L287.113 14.329C286.904 14.1204 286.622 14.0026 286.327 14.0014H285.63C285.601 14.0009 285.573 13.9951 285.546 13.9844L284.295 15.2359C284.142 15.3887 284.021 15.57 283.938 15.7696C283.855 15.9693 283.813 16.1832 283.813 16.3993C283.813 16.6154 283.855 16.8294 283.938 17.029C284.021 17.2286 284.142 17.41 284.295 17.5627L285.546 18.8143C285.573 18.8035 285.601 18.7978 285.63 18.7972H286.327C286.622 18.7958 286.904 18.6781 287.113 18.4696L288.743 16.8393C288.892 16.6976 289.089 16.6185 289.295 16.6185C289.5 16.6185 289.697 16.6976 289.846 16.8393L291.47 18.4637C291.679 18.6722 291.962 18.7899 292.257 18.7913H292.824C292.854 18.7917 292.884 18.7979 292.912 18.8097L294.157 17.5647C294.465 17.2561 294.639 16.8376 294.639 16.4013C294.639 15.965 294.465 15.5465 294.157 15.2379" fill="white"/>
<path d="M298.997 20.4787C298.894 20.4833 298.791 20.4989 298.691 20.5252V20.9315C298.768 20.9584 298.848 20.9719 298.929 20.9715C299.133 20.9715 299.229 20.9027 299.229 20.7231C299.229 20.5547 299.15 20.4787 298.997 20.4787ZM298.623 21.2329V20.4302H298.679L298.685 20.4649C298.789 20.4371 298.895 20.42 299.003 20.4138C299.077 20.4087 299.151 20.4301 299.211 20.4741C299.244 20.5061 299.269 20.5451 299.285 20.5882C299.301 20.6313 299.307 20.6774 299.303 20.7231C299.307 20.7741 299.296 20.8252 299.273 20.8708C299.25 20.9165 299.215 20.9549 299.172 20.9819C299.098 21.0182 299.017 21.0362 298.935 21.0344C298.852 21.0339 298.77 21.0213 298.691 20.997V21.2329H298.623Z" fill="white"/>
<path d="M299.814 20.4766C299.61 20.4766 299.52 20.5421 299.52 20.7197C299.52 20.8973 299.609 20.9713 299.814 20.9713C300.018 20.9713 300.107 20.9058 300.107 20.7289C300.107 20.5519 300.018 20.4766 299.814 20.4766ZM300.076 20.9713C299.997 21.0198 299.906 21.0427 299.814 21.0368C299.722 21.0423 299.63 21.0195 299.552 20.9713C299.515 20.9421 299.486 20.9042 299.468 20.8611C299.45 20.818 299.442 20.7709 299.447 20.7243C299.443 20.6775 299.45 20.6305 299.468 20.5873C299.487 20.5441 299.515 20.5061 299.552 20.4766C299.63 20.4281 299.722 20.4052 299.814 20.4111C299.906 20.4053 299.997 20.4282 300.076 20.4766C300.112 20.5058 300.141 20.5436 300.159 20.5866C300.178 20.6296 300.185 20.6764 300.181 20.723C300.185 20.7698 300.178 20.817 300.16 20.8604C300.141 20.9037 300.113 20.9418 300.076 20.9713Z" fill="white"/>
<path d="M301.04 21.018L300.813 20.5304H300.809L300.585 21.018H300.527L300.284 20.4282H300.36L300.561 20.9216H300.566L300.785 20.4282H300.85L301.075 20.9216H301.08L301.276 20.4282H301.35L301.108 21.018H301.04Z" fill="white"/>
<path d="M301.783 20.475C301.594 20.475 301.531 20.5589 301.521 20.6801H302.049C302.044 20.5458 301.975 20.475 301.787 20.475H301.783ZM301.787 21.0339C301.7 21.0431 301.613 21.0198 301.542 20.9684C301.509 20.9374 301.482 20.8991 301.465 20.8564C301.448 20.8138 301.441 20.7678 301.444 20.722C301.442 20.6745 301.45 20.627 301.469 20.5833C301.488 20.5396 301.517 20.501 301.554 20.4704C301.622 20.4276 301.702 20.407 301.783 20.4114C301.865 20.4063 301.947 20.4262 302.018 20.4684C302.103 20.5254 302.12 20.6257 302.12 20.7397H301.516C301.516 20.8603 301.558 20.9677 301.786 20.9677C301.888 20.9653 301.99 20.9539 302.09 20.9337V20.9953C301.988 21.0165 301.885 21.0288 301.781 21.032" fill="white"/>
<path d="M302.316 21.0177V20.428H302.373L302.379 20.4627C302.473 20.4318 302.571 20.4146 302.67 20.4116H302.679V20.4771H302.662C302.568 20.4792 302.475 20.4949 302.385 20.5237V21.0164L302.316 21.0177Z" fill="white"/>
<path d="M303.078 20.4754C302.889 20.4754 302.825 20.5593 302.816 20.6805H303.344C303.338 20.5462 303.27 20.4754 303.082 20.4754H303.078ZM303.082 21.0344C302.995 21.0434 302.908 21.0201 302.838 20.9689C302.805 20.9375 302.78 20.8992 302.764 20.857C302.749 20.8147 302.742 20.7694 302.746 20.7244C302.744 20.6769 302.752 20.6294 302.771 20.5857C302.79 20.542 302.819 20.5034 302.856 20.4728C302.924 20.4301 303.004 20.4095 303.085 20.4139C303.167 20.4088 303.249 20.4287 303.319 20.4709C303.405 20.5279 303.421 20.6281 303.421 20.7421H302.818C302.818 20.8627 302.86 20.9702 303.088 20.9702C303.19 20.9677 303.292 20.9563 303.392 20.9361V20.9977C303.29 21.0189 303.186 21.0312 303.082 21.0344Z" fill="white"/>
<path d="M304.166 20.5158C304.09 20.4892 304.01 20.4759 303.929 20.4765C303.725 20.4765 303.628 20.5453 303.628 20.7242C303.628 20.9031 303.707 20.9686 303.861 20.9686C303.964 20.9638 304.066 20.9486 304.166 20.9234V20.5158ZM304.179 21.0178L304.173 20.9824C304.069 21.0103 303.963 21.0277 303.855 21.0341C303.781 21.0398 303.707 21.0182 303.647 20.9732C303.614 20.9413 303.588 20.9024 303.572 20.8593C303.556 20.8161 303.55 20.77 303.555 20.7242C303.551 20.6734 303.561 20.6225 303.584 20.5771C303.607 20.5316 303.642 20.4935 303.686 20.4667C303.759 20.4296 303.841 20.4113 303.924 20.4136C304.006 20.4146 304.088 20.4271 304.167 20.451V20.1816H304.236V21.0178H304.179Z" fill="white"/>
<path d="M305.245 20.4785C305.141 20.4831 305.039 20.4987 304.939 20.525V20.9299C305.015 20.9578 305.096 20.9717 305.177 20.9712C305.381 20.9712 305.477 20.9024 305.477 20.7229C305.477 20.5545 305.398 20.4785 305.245 20.4785ZM305.42 20.9817C305.347 21.0179 305.266 21.0359 305.184 21.0341C305.095 21.0332 305.006 21.0182 304.922 20.9896V21.0178H304.874V20.1816H304.94V20.4601C305.042 20.4341 305.146 20.4179 305.251 20.4116C305.326 20.4065 305.399 20.4279 305.46 20.4719C305.492 20.5039 305.518 20.5429 305.534 20.586C305.55 20.6291 305.556 20.6752 305.551 20.7209C305.555 20.7719 305.545 20.823 305.522 20.8686C305.499 20.9143 305.464 20.9527 305.42 20.9797" fill="white"/>
<path d="M305.638 21.2463V21.1808C305.671 21.1808 305.703 21.1867 305.725 21.1867C305.765 21.1899 305.805 21.1798 305.838 21.1578C305.871 21.1358 305.896 21.1033 305.909 21.0655L305.931 21.0189L305.624 20.4292H305.703L305.965 20.9364H305.97L306.22 20.4292H306.298L305.971 21.089C305.91 21.209 305.845 21.2483 305.725 21.2483C305.696 21.2496 305.667 21.2489 305.638 21.2463Z" fill="white"/>
<path d="M307.247 20.6822H307.018V20.8886H307.248C307.405 20.8886 307.465 20.8709 307.465 20.7844C307.465 20.6979 307.383 20.6822 307.247 20.6822ZM307.205 20.348H307.018V20.5577H307.206C307.361 20.5577 307.423 20.5393 307.423 20.4515C307.423 20.3637 307.345 20.348 307.205 20.348ZM307.559 20.962C307.475 21.015 307.374 21.0177 307.189 21.0177H306.841V20.2202H307.18C307.34 20.2202 307.438 20.2202 307.519 20.2713C307.546 20.2875 307.568 20.3109 307.583 20.3389C307.597 20.3669 307.603 20.3985 307.601 20.4299C307.603 20.4692 307.592 20.5081 307.569 20.5402C307.546 20.5723 307.513 20.5958 307.475 20.6068V20.6114C307.577 20.6343 307.644 20.6868 307.644 20.8001C307.646 20.8323 307.639 20.8645 307.624 20.8932C307.61 20.9218 307.587 20.9456 307.559 20.962Z" fill="white"/>
<path d="M308.34 20.7708C308.275 20.7649 308.202 20.7616 308.128 20.7616C308.009 20.7616 307.967 20.7859 307.967 20.8409C307.967 20.896 308.001 20.9196 308.093 20.9196C308.176 20.9166 308.259 20.905 308.34 20.8848V20.7708ZM308.375 21.0178L308.37 20.9825C308.266 21.012 308.159 21.0294 308.051 21.0342C307.989 21.0384 307.927 21.0233 307.874 20.991C307.852 20.9745 307.834 20.9529 307.823 20.9281C307.811 20.9033 307.806 20.8761 307.808 20.8488C307.806 20.8154 307.815 20.7823 307.833 20.7538C307.85 20.7254 307.876 20.703 307.907 20.6896C307.977 20.6632 308.053 20.652 308.128 20.6568C308.189 20.6568 308.272 20.6601 308.341 20.6647V20.6568C308.341 20.5651 308.28 20.5349 308.115 20.5349C308.049 20.5349 307.973 20.5382 307.898 20.5454V20.4261C307.981 20.4196 308.074 20.415 308.151 20.415C308.245 20.4067 308.34 20.4255 308.425 20.4694C308.49 20.5172 308.505 20.5834 308.505 20.6712V21.0192L308.375 21.0178Z" fill="white"/>
<path d="M309.272 21.0178V20.6902C309.272 20.5834 309.217 20.5447 309.119 20.5447C309.038 20.5482 308.958 20.5607 308.879 20.5821V21.0152H308.717V20.4255H308.849L308.854 20.4622C308.957 20.4325 309.062 20.4147 309.168 20.4091C309.241 20.4035 309.313 20.4249 309.37 20.4694C309.394 20.4933 309.412 20.5222 309.424 20.5541C309.435 20.5859 309.439 20.6199 309.436 20.6535V21.0132L309.272 21.0178Z" fill="white"/>
<path d="M309.897 21.0342C309.819 21.0402 309.741 21.0181 309.678 20.9719C309.645 20.9402 309.619 20.9014 309.603 20.8582C309.587 20.815 309.581 20.7688 309.585 20.7229C309.582 20.6743 309.591 20.6257 309.612 20.5818C309.633 20.5379 309.665 20.5001 309.705 20.4719C309.784 20.4279 309.873 20.4076 309.963 20.4136C310.029 20.4136 310.097 20.4182 310.17 20.4248V20.5506C310.111 20.5453 310.039 20.5401 309.983 20.5401C309.827 20.5401 309.753 20.5892 309.753 20.7242C309.753 20.8592 309.808 20.9057 309.936 20.9057C310.019 20.9032 310.102 20.8931 310.183 20.8756V20.9968C310.089 21.0184 309.993 21.0309 309.897 21.0342Z" fill="white"/>
<path d="M310.669 20.5369C310.514 20.5369 310.445 20.586 310.445 20.7197C310.445 20.8534 310.51 20.9104 310.669 20.9104C310.829 20.9104 310.892 20.8625 310.892 20.7289C310.892 20.5952 310.826 20.5369 310.669 20.5369ZM310.951 20.972C310.866 21.0204 310.768 21.0421 310.669 21.0342C310.571 21.0418 310.473 21.0202 310.386 20.972C310.348 20.9438 310.318 20.9062 310.298 20.8628C310.279 20.8194 310.271 20.7716 310.276 20.7243C310.271 20.6767 310.279 20.6288 310.298 20.5852C310.318 20.5415 310.348 20.5037 310.386 20.4753C310.473 20.4273 310.571 20.4059 310.669 20.4137C310.767 20.4062 310.865 20.4276 310.951 20.4753C310.989 20.5036 311.019 20.5413 311.039 20.5847C311.058 20.6281 311.065 20.6757 311.061 20.723C311.065 20.7704 311.058 20.8182 311.039 20.8618C311.019 20.9054 310.989 20.9433 310.951 20.972Z" fill="white"/>
<path d="M312.008 21.0342C311.906 21.0406 311.805 21.0112 311.722 20.951C311.626 20.8723 311.597 20.7498 311.597 20.6181C311.594 20.5526 311.607 20.4873 311.635 20.4281C311.663 20.369 311.706 20.3178 311.759 20.2793C311.862 20.2224 311.979 20.1962 312.097 20.204C312.185 20.204 312.276 20.2099 312.374 20.2177V20.3612C312.29 20.354 312.185 20.3481 312.104 20.3481C311.876 20.3481 311.78 20.4346 311.78 20.6181C311.78 20.8016 311.869 20.8894 312.037 20.8894C312.157 20.8854 312.276 20.8694 312.392 20.8415V20.9844C312.266 21.0139 312.138 21.0308 312.008 21.0348" fill="white"/>
<path d="M312.874 20.5181C312.738 20.5181 312.686 20.5666 312.678 20.6563H313.071C313.066 20.5607 313.011 20.5181 312.874 20.5181ZM312.85 21.0338C312.762 21.0417 312.674 21.0185 312.601 20.9682C312.568 20.9371 312.542 20.8988 312.526 20.8562C312.509 20.8137 312.503 20.7679 312.507 20.7225C312.504 20.6755 312.513 20.6285 312.532 20.5854C312.551 20.5423 312.58 20.5044 312.617 20.4748C312.694 20.4283 312.784 20.4068 312.874 20.4132C312.963 20.4077 313.052 20.4282 313.129 20.4722C313.224 20.5377 313.232 20.6413 313.233 20.7625H312.674C312.678 20.8523 312.726 20.9099 312.891 20.9099C312.996 20.9076 313.101 20.8975 313.204 20.8798V20.9951C313.087 21.0172 312.969 21.0302 312.85 21.0338Z" fill="white"/>
<path d="M313.963 21.0178V20.6902C313.963 20.5834 313.908 20.5447 313.811 20.5447C313.73 20.5482 313.649 20.5607 313.571 20.5821V21.0152H313.406V20.4255H313.541L313.547 20.4622C313.649 20.4324 313.754 20.4146 313.861 20.4091C313.933 20.4035 314.005 20.4249 314.062 20.4694C314.086 20.4933 314.105 20.5222 314.116 20.5541C314.127 20.5859 314.131 20.6199 314.128 20.6535V21.0132L313.963 21.0178Z" fill="white"/>
<path d="M314.593 21.0343C314.557 21.0379 314.52 21.032 314.487 21.0173C314.453 21.0026 314.424 20.9796 314.402 20.9505C314.37 20.897 314.355 20.8347 314.359 20.7722V20.5521H314.241V20.4302H314.359L314.377 20.252H314.522V20.4302H314.754V20.5521H314.522V20.7408C314.52 20.7789 314.526 20.817 314.539 20.8528C314.549 20.8718 314.564 20.8873 314.584 20.897C314.603 20.9068 314.624 20.9103 314.646 20.9072C314.685 20.9065 314.724 20.9026 314.763 20.8954V21.0134C314.707 21.0256 314.65 21.0326 314.593 21.0343Z" fill="white"/>
<path d="M314.914 21.0177V20.428H315.045L315.051 20.4647C315.145 20.433 315.243 20.4151 315.342 20.4116H315.363V20.5518C315.344 20.5518 315.322 20.5518 315.306 20.5518C315.228 20.5521 315.151 20.5622 315.075 20.582V21.0164L314.914 21.0177Z" fill="white"/>
<path d="M315.963 20.7708C315.894 20.7649 315.824 20.7616 315.75 20.7616C315.63 20.7616 315.589 20.7859 315.589 20.8409C315.589 20.896 315.624 20.9196 315.716 20.9196C315.799 20.9166 315.882 20.9049 315.963 20.8848V20.7708ZM315.997 21.0179L315.991 20.9844C315.887 21.0139 315.78 21.0313 315.672 21.0362C315.609 21.0403 315.547 21.0252 315.494 20.993C315.472 20.9764 315.454 20.9548 315.443 20.93C315.432 20.9052 315.426 20.878 315.428 20.8508C315.426 20.8164 315.436 20.7824 315.454 20.7535C315.473 20.7246 315.5 20.7022 315.532 20.6896C315.602 20.6638 315.677 20.653 315.752 20.6581C315.813 20.6581 315.896 20.6614 315.965 20.666V20.6568C315.965 20.5651 315.904 20.5349 315.739 20.5349C315.674 20.5349 315.597 20.5382 315.522 20.5454V20.4262C315.606 20.4196 315.699 20.415 315.775 20.415C315.87 20.4067 315.964 20.4255 316.049 20.4694C316.114 20.5172 316.129 20.5834 316.129 20.6712V21.0192L315.997 21.0179Z" fill="white"/>
<path d="M316.337 20.1816H316.502V21.0178H316.337V20.1816Z" fill="white"/>
<path fill-rule="evenodd" clip-rule="evenodd" d="M252.351 20.8604V16.9583H254.365C255.191 16.9583 255.887 16.6818 256.455 16.1364L256.591 15.9982C257.629 14.869 257.56 13.11 256.455 12.0654C255.902 11.5123 255.145 11.2127 254.365 11.2281H251.133V20.8604H252.351ZM252.352 15.7755V12.4111H254.396C254.835 12.4111 255.252 12.5801 255.562 12.8873C256.221 13.5326 256.236 14.6079 255.6 15.2762C255.29 15.6065 254.85 15.7909 254.396 15.7755H252.352ZM262.277 14.7847C261.755 14.3008 261.043 14.055 260.142 14.055C258.984 14.055 258.113 14.4852 257.538 15.3378L258.613 16.0214C259.007 15.4376 259.544 15.1458 260.226 15.1458C260.657 15.1458 261.074 15.3071 261.399 15.5989C261.717 15.8755 261.899 16.2749 261.899 16.6974V16.9816C261.429 16.7204 260.839 16.5821 260.112 16.5821C259.264 16.5821 258.583 16.7819 258.075 17.189C257.568 17.5961 257.311 18.1338 257.311 18.8174C257.295 19.4396 257.56 20.031 258.03 20.4305C258.507 20.8606 259.113 21.0757 259.824 21.0757C260.665 21.0757 261.331 20.6993 261.838 19.9465H261.891V20.8606H263.057V16.7972C263.057 15.9446 262.8 15.2687 262.277 14.7847ZM258.969 19.6467C258.719 19.4623 258.568 19.1628 258.568 18.8401C258.568 18.4791 258.734 18.1796 259.06 17.9414C259.393 17.7033 259.809 17.5804 260.302 17.5804C260.983 17.5727 261.513 17.7264 261.892 18.0336C261.892 18.5559 261.687 19.0091 261.286 19.3932C260.923 19.7619 260.43 19.9693 259.915 19.9693C259.575 19.977 259.242 19.8618 258.969 19.6467ZM265.677 23.7564L269.75 14.2701H268.425L266.54 19.0017H266.517L264.587 14.2701H263.262L265.934 20.4381L264.42 23.7564H265.677Z" fill="white"/>
<path d="M248.143 16.1127C248.143 15.7363 248.113 15.3599 248.052 14.9912H242.911V17.1189H245.857C245.736 17.8026 245.342 18.4171 244.766 18.8011V20.1837H246.523C247.553 19.2236 248.143 17.8026 248.143 16.1127Z" fill="white"/>
<path d="M242.912 21.5203C244.381 21.5203 245.622 21.0287 246.523 20.1838L244.767 18.8011C244.275 19.1391 243.646 19.3311 242.912 19.3311C241.488 19.3311 240.285 18.3556 239.853 17.0498H238.043V18.4785C238.967 20.3451 240.852 21.5203 242.912 21.5203Z" fill="white"/>
<path d="M239.853 17.0498C239.626 16.3662 239.626 15.6211 239.853 14.9298V13.5088H238.043C237.263 15.0681 237.263 16.9116 238.043 18.4709L239.853 17.0498Z" fill="white"/>
<path d="M242.912 12.649C243.692 12.6336 244.441 12.9332 245.001 13.4785L246.561 11.8962C245.569 10.9591 244.267 10.4444 242.912 10.4598C240.852 10.4598 238.967 11.6427 238.043 13.5093L239.853 14.938C240.285 13.6245 241.488 12.649 242.912 12.649Z" fill="white"/>
<path fill-rule="evenodd" clip-rule="evenodd" d="M198.788 20.1924H196.778C196.641 20.1924 196.524 20.2923 196.502 20.428L195.69 25.5806C195.673 25.6823 195.752 25.7739 195.855 25.7739H196.815C196.952 25.7739 197.069 25.674 197.091 25.538L197.31 24.1483C197.331 24.0122 197.448 23.9124 197.585 23.9124H198.221C199.545 23.9124 200.309 23.2719 200.508 22.0026C200.598 21.4473 200.512 21.011 200.252 20.7054C199.967 20.37 199.46 20.1924 198.788 20.1924ZM199.019 22.0743C198.91 22.7953 198.359 22.7953 197.826 22.7953H197.523L197.735 21.4487C197.748 21.3674 197.819 21.3074 197.901 21.3074H198.04C198.403 21.3074 198.745 21.3074 198.922 21.5142C199.027 21.6377 199.06 21.821 199.019 22.0743ZM204.794 22.0512H203.832C203.75 22.0512 203.679 22.1111 203.666 22.1926L203.624 22.4617L203.556 22.3642C203.348 22.0618 202.884 21.9608 202.42 21.9608C201.357 21.9608 200.449 22.7661 200.272 23.8958C200.18 24.4593 200.31 24.9981 200.63 25.3739C200.923 25.7194 201.343 25.8634 201.842 25.8634C202.699 25.8634 203.174 25.3124 203.174 25.3124L203.131 25.5799C203.115 25.6821 203.194 25.7738 203.296 25.7738H204.163C204.301 25.7738 204.417 25.6738 204.439 25.5379L204.959 22.2445C204.975 22.1432 204.897 22.0512 204.794 22.0512ZM203.453 23.924C203.36 24.4737 202.923 24.8427 202.367 24.8427C202.088 24.8427 201.864 24.7531 201.721 24.5833C201.579 24.4147 201.525 24.1745 201.57 23.9072C201.657 23.3622 202.1 22.9812 202.648 22.9812C202.921 22.9812 203.144 23.0719 203.29 23.2432C203.436 23.4163 203.495 23.6577 203.453 23.924ZM208.952 22.051H209.919C210.054 22.051 210.133 22.2029 210.056 22.314L206.84 26.9561C206.788 27.0313 206.702 27.0761 206.611 27.0761H205.645C205.509 27.0761 205.429 26.923 205.508 26.8116L206.51 25.3981L205.445 22.2725C205.408 22.1639 205.488 22.051 205.604 22.051H206.554C206.677 22.051 206.786 22.1321 206.822 22.2502L207.387 24.138L208.721 22.1735C208.773 22.0969 208.859 22.051 208.952 22.051Z" fill="white"/>
<path fill-rule="evenodd" clip-rule="evenodd" d="M219.435 25.5803L220.26 20.3336C220.273 20.2521 220.343 20.1922 220.425 20.1919H221.354C221.456 20.1919 221.535 20.2838 221.519 20.3855L220.706 25.5378C220.684 25.6738 220.567 25.7737 220.43 25.7737H219.601C219.498 25.7737 219.419 25.6821 219.435 25.5803ZM213.12 20.1922H211.11C210.973 20.1922 210.856 20.2921 210.835 20.4278L210.022 25.5803C210.006 25.6821 210.085 25.7737 210.187 25.7737H211.218C211.314 25.7737 211.396 25.7038 211.411 25.6086L211.642 24.1481C211.663 24.012 211.78 23.9122 211.917 23.9122H212.553C213.877 23.9122 214.641 23.2717 214.841 22.0024C214.931 21.4471 214.844 21.0108 214.584 20.7052C214.299 20.3697 213.792 20.1922 213.12 20.1922ZM213.352 22.0741C213.242 22.7951 212.691 22.7951 212.158 22.7951H211.855L212.068 21.4485C212.081 21.3672 212.151 21.3072 212.234 21.3072H212.372C212.735 21.3072 213.078 21.3072 213.254 21.514C213.36 21.6375 213.392 21.8208 213.352 22.0741ZM219.126 22.051H218.164C218.082 22.051 218.012 22.1109 217.999 22.1924L217.957 22.4614L217.889 22.3639C217.681 22.0616 217.217 21.9605 216.753 21.9605C215.689 21.9605 214.782 22.7659 214.605 23.8956C214.513 24.459 214.643 24.9979 214.963 25.3737C215.257 25.7192 215.676 25.8632 216.175 25.8632C217.032 25.8632 217.507 25.3122 217.507 25.3122L217.464 25.5797C217.448 25.6819 217.526 25.7736 217.63 25.7736H218.496C218.633 25.7736 218.75 25.6736 218.772 25.5377L219.292 22.2443C219.308 22.143 219.229 22.051 219.126 22.051ZM217.785 23.9237C217.692 24.4735 217.256 24.8425 216.699 24.8425C216.42 24.8425 216.196 24.7529 216.053 24.583C215.911 24.4144 215.857 24.1743 215.902 23.907C215.989 23.3619 216.432 22.981 216.98 22.981C217.253 22.981 217.476 23.0716 217.622 23.243C217.769 23.416 217.827 23.6575 217.785 23.9237Z" fill="white"/>
<path d="M206.224 18.3487L206.471 16.7797L205.921 16.7669H203.293L205.119 5.1886C205.125 5.15364 205.143 5.12105 205.17 5.09791C205.197 5.07477 205.231 5.06201 205.267 5.06201H209.698C211.169 5.06201 212.184 5.36808 212.714 5.97219C212.962 6.2556 213.12 6.55175 213.197 6.87766C213.277 7.21964 213.279 7.6282 213.2 8.12651L213.194 8.16289V8.48217L213.443 8.62294C213.652 8.73393 213.818 8.86099 213.946 9.00647C214.159 9.24878 214.296 9.55674 214.354 9.92185C214.414 10.2974 214.394 10.7442 214.296 11.2501C214.183 11.832 213.999 12.3388 213.752 12.7535C213.524 13.1356 213.234 13.4525 212.89 13.6982C212.561 13.9315 212.17 14.1086 211.729 14.222C211.301 14.3334 210.813 14.3897 210.278 14.3897H209.933C209.686 14.3897 209.447 14.4785 209.259 14.6377C209.071 14.8002 208.946 15.0221 208.908 15.2649L208.882 15.4062L208.445 18.1716L208.425 18.2731C208.42 18.3054 208.411 18.3214 208.398 18.3323C208.386 18.3421 208.369 18.3487 208.353 18.3487H206.224Z" fill="white"/>
<path d="M213.678 8.19971C213.665 8.28425 213.65 8.37068 213.633 8.45948C213.049 11.4593 211.05 12.4956 208.497 12.4956H207.197C206.885 12.4956 206.622 12.7223 206.573 13.0303L205.907 17.2511L205.719 18.4474C205.687 18.6496 205.843 18.8319 206.047 18.8319H208.353C208.626 18.8319 208.857 18.6336 208.9 18.3644L208.923 18.2472L209.357 15.4925L209.385 15.3414C209.428 15.0713 209.66 14.8729 209.933 14.8729H210.278C212.511 14.8729 214.26 13.966 214.771 11.3417C214.985 10.2454 214.874 9.33 214.309 8.68621C214.138 8.49207 213.926 8.33101 213.678 8.19971Z" fill="#CECECE"/>
<path d="M213.067 7.9563C212.978 7.93031 212.885 7.9067 212.791 7.88544C212.696 7.86467 212.599 7.84624 212.499 7.83019C212.148 7.7735 211.764 7.74658 211.353 7.74658H207.88C207.795 7.74658 207.713 7.76594 207.641 7.8009C207.48 7.87788 207.361 8.02951 207.333 8.21513L206.594 12.8941L206.573 13.0306C206.621 12.7226 206.884 12.4959 207.197 12.4959H208.496C211.049 12.4959 213.048 11.4591 213.633 8.4598C213.65 8.371 213.665 8.28457 213.678 8.20003C213.53 8.12162 213.37 8.05454 213.198 7.99738C213.155 7.98322 213.111 7.96953 213.067 7.9563Z" fill="white"/>
<path d="M207.333 8.21511C207.361 8.02948 207.481 7.87786 207.641 7.80134C207.714 7.76638 207.795 7.74702 207.88 7.74702H211.353C211.764 7.74702 212.148 7.77394 212.499 7.83063C212.599 7.84668 212.696 7.86511 212.791 7.88588C212.886 7.90715 212.978 7.93077 213.067 7.95673C213.111 7.96996 213.155 7.98366 213.198 7.99736C213.37 8.05451 213.531 8.12206 213.678 8.19999C213.852 7.09142 213.677 6.33664 213.078 5.65316C212.417 4.90074 211.224 4.57861 209.698 4.57861H205.268C204.956 4.57861 204.69 4.80532 204.642 5.11376L202.796 16.8111C202.76 17.0425 202.939 17.2514 203.172 17.2514H205.907L206.594 12.894L207.333 8.21511Z" fill="white"/>
<path fill-rule="evenodd" clip-rule="evenodd" d="M118.644 24.7971C123.512 24.7971 127.458 20.8051 127.458 15.8807C127.458 10.9564 123.512 6.96436 118.644 6.96436C116.463 6.96436 114.466 7.76619 112.927 9.09443C111.388 7.76627 109.392 6.9645 107.21 6.9645C102.342 6.9645 98.3959 10.9565 98.3959 15.8809C98.3959 20.8053 102.342 24.7973 107.21 24.7973C109.392 24.7973 111.388 23.9954 112.927 22.6672C114.466 23.9953 116.463 24.7971 118.644 24.7971Z" fill="#A9A9A9"/>
<path fill-rule="evenodd" clip-rule="evenodd" d="M112.927 22.6671C114.822 21.0317 116.024 18.5982 116.024 15.8807C116.024 13.1633 114.822 10.7298 112.927 9.09436C114.466 7.76616 116.463 6.96436 118.644 6.96436C123.512 6.96436 127.458 10.9564 127.458 15.8807C127.458 20.8051 123.512 24.7971 118.644 24.7971C116.463 24.7971 114.466 23.9953 112.927 22.6671Z" fill="#F4F4F4"/>
<path fill-rule="evenodd" clip-rule="evenodd" d="M112.927 22.6669C114.822 21.0315 116.024 18.598 116.024 15.8806C116.024 13.1632 114.822 10.7297 112.927 9.09424C111.032 10.7297 109.83 13.1632 109.83 15.8806C109.83 18.598 111.032 21.0315 112.927 22.6669Z" fill="white"/>
<path fill-rule="evenodd" clip-rule="evenodd" d="M147.105 11.4849L142.875 20.8453H147.939L148.566 19.3528H150.001L150.629 20.8453H156.203V19.7062L156.699 20.8453H159.583L160.079 19.6821V20.8453H171.671L173.08 19.3916L174.4 20.8453L180.354 20.8573L176.111 16.1912L180.354 11.4849H174.493L173.12 12.9117L171.842 11.4849H159.232L158.149 13.9009L157.041 11.4849H151.988V12.5852L151.426 11.4849H147.105ZM164.415 12.8143H171.071L173.107 15.0134L175.209 12.8143H177.245L174.151 16.1901L177.245 19.527H175.116L173.08 17.3023L170.968 19.527H164.415V12.8143ZM166.058 15.431V14.2049V14.2037H170.212L172.024 16.1646L170.132 18.1362H166.058V16.7976H169.69V15.431H166.058ZM148.085 12.8143H150.553L153.358 19.1616V12.8143H156.062L158.229 17.3653L160.227 12.8143H162.917V19.531H161.28L161.267 14.2678L158.88 19.531H157.415L155.015 14.2678V19.531H151.648L151.009 18.0252H147.56L146.923 19.5296H145.118L148.085 12.8143ZM148.149 16.6332L149.285 13.9508L150.42 16.6332H148.149Z" fill="white"/>
<path fill-rule="evenodd" clip-rule="evenodd" d="M60.6814 21.5058H57.9426L55.8889 13.6707C55.7914 13.3103 55.5844 12.9917 55.28 12.8415C54.5202 12.4641 53.6829 12.1638 52.7696 12.0123V11.7107H57.1815C57.7904 11.7107 58.2471 12.1638 58.3232 12.69L59.3888 18.3418L62.1262 11.7107H64.7888L60.6814 21.5058ZM66.3111 21.5058H63.7246L65.8544 11.7107H68.441L66.3111 21.5058ZM71.7873 14.4243C71.8634 13.8968 72.3201 13.5951 72.8529 13.5951C73.6901 13.5194 74.6022 13.6709 75.3633 14.0469L75.82 11.938C75.0588 11.6363 74.2216 11.4849 73.4618 11.4849C70.9514 11.4849 69.1246 12.8416 69.1246 14.7247C69.1246 16.1572 70.4186 16.9094 71.3319 17.3625C72.3201 17.8143 72.7007 18.116 72.6245 18.5678C72.6245 19.2455 71.8634 19.5472 71.1036 19.5472C70.1902 19.5472 69.2769 19.3213 68.441 18.9439L67.9843 21.0541C68.8976 21.4302 69.8858 21.5817 70.7991 21.5817C73.614 21.6561 75.3633 20.3007 75.3633 18.2662C75.3633 15.7041 71.7873 15.5539 71.7873 14.4243ZM84.4155 21.5058L82.3618 11.7107H80.1558C79.6991 11.7107 79.2424 12.0123 79.0902 12.4641L75.2872 21.5058H77.9498L78.4813 20.0746H81.7529L82.0573 21.5058H84.4155ZM80.5364 14.3486L81.2962 18.0402H79.1663L80.5364 14.3486Z" fill="white"/>
<g clip-path="url(#clip0_5741_93321)">
<path d="M6.45831 6.96436H6.8172V16.4935H6.45831V6.96436ZM7.17609 6.96436H7.53498V16.4935H7.17609V6.96436ZM9.33102 6.96436H9.68991V16.4935H9.33102V6.96436ZM16.3168 6.96436H16.6756V16.4935H16.3168V6.96436ZM18.6522 6.96436H19.0111V16.4935H18.6522V6.96436ZM20.9168 6.96436H21.2757V16.4935H20.9168V6.96436ZM21.5004 6.96436H21.8593V16.4935H21.5009L21.5004 6.96436ZM22.0849 6.96436H22.4438V16.4935H22.0849V6.96436ZM22.7417 6.96436H23.1006V16.4935H22.7419L22.7417 6.96436ZM23.3984 6.96436H23.7573V16.4935H23.3984V6.96436ZM25.2242 6.96436H25.5831V16.4935H25.2237L25.2242 6.96436ZM29.7511 6.96436H30.1099V16.4935H29.7511V6.96436ZM34.473 6.96436H34.8318V16.4935H34.4729L34.473 6.96436ZM35.7646 6.96436H36.1234V16.4935H35.7646V6.96436ZM36.6983 6.96436H37.0572V16.4935H36.6983V6.96436ZM37.2728 6.96436H37.6317V16.4935H37.2728V6.96436ZM11.7011 6.96436H12.06V16.4935H11.7011V6.96436ZM8.10986 6.96436H8.75613V16.4935H8.10986V6.96436ZM12.3746 6.96436H13.0208V16.4935H12.3746V6.96436ZM15.3692 6.96436H16.0154V16.4935H15.3692V6.96436ZM16.9023 6.96436H17.5485V16.4935H16.9023V6.96436ZM19.3117 6.96436H19.9579V16.4935H19.3117V6.96436ZM26.1808 6.96436H27.1859V16.4935H26.1808V6.96436ZM27.4937 6.96436H28.2831V16.4935H27.4928L27.4937 6.96436ZM28.879 6.96436H29.5251V16.4935H28.879V6.96436ZM30.7108 6.96436H31.7882V16.4935H30.7108V6.96436ZM32.8206 6.96436H33.8981V16.4935H32.8206V6.96436ZM10.0492 6.96436H11.3415V16.4935H10.0492V6.96436ZM13.3987 6.96436H14.4037V16.4935H13.3987V6.96436Z" fill="white"/>
<path d="M6.92319 24.9544V19.5002H8.96987C9.31189 19.487 9.65303 19.5433 9.9727 19.6656C10.2177 19.7703 10.4243 19.9484 10.5639 20.1753C10.7023 20.3901 10.7766 20.6399 10.7781 20.8953C10.7781 21.1283 10.7123 21.3565 10.5884 21.5538C10.4487 21.771 10.2499 21.9439 10.0153 22.052C10.3164 22.1294 10.5839 22.3031 10.7771 22.5465C10.9559 22.7842 11.0495 23.0752 11.043 23.3725C11.0451 23.6194 10.9898 23.8634 10.8814 24.0852C10.7898 24.284 10.6522 24.4582 10.4799 24.5933C10.3006 24.722 10.0975 24.8139 9.88252 24.8636C9.59421 24.9297 9.29891 24.9604 9.00317 24.955L6.92319 24.9544ZM7.64564 21.7922H8.82514C9.05549 21.8012 9.28603 21.78 9.51085 21.729C9.6754 21.6873 9.8213 21.5918 9.92539 21.4577C10.0223 21.3183 10.0713 21.1511 10.0648 20.9815C10.0682 20.813 10.023 20.6472 9.93461 20.5038C9.85031 20.3676 9.71927 20.2668 9.56601 20.2203C9.29408 20.1578 9.01496 20.1321 8.73618 20.144H7.64588L7.64564 21.7922ZM7.64564 24.311H9.00341C9.16766 24.3153 9.33199 24.3067 9.49487 24.2852C9.64221 24.2612 9.78365 24.2095 9.91164 24.1327C10.0286 24.0572 10.1235 23.952 10.1867 23.828C10.2606 23.6871 10.2978 23.5299 10.295 23.3708C10.3 23.181 10.2454 22.9944 10.1388 22.8373C10.0336 22.6866 9.88094 22.5753 9.70522 22.5212C9.44539 22.4509 9.17646 22.4201 8.90746 22.4298H7.64564V24.311ZM12.0978 22.2986C12.052 21.5213 12.3138 20.7573 12.8267 20.1715C13.0685 19.9177 13.3613 19.718 13.6858 19.5856C14.0104 19.4532 14.3593 19.3911 14.7096 19.4034C15.188 19.3969 15.659 19.5218 16.0712 19.7646C16.4719 20.0015 16.7936 20.3517 16.9955 20.7711C17.2132 21.2279 17.322 21.729 17.3133 22.2349C17.3224 22.7493 17.208 23.2583 16.9796 23.7193C16.7722 24.1387 16.441 24.4845 16.0309 24.7098C15.6255 24.9333 15.1695 25.0493 14.7066 25.0466C14.2221 25.0545 13.7452 24.926 13.3305 24.6755C12.9314 24.4336 12.6117 24.0803 12.4108 23.6591C12.2037 23.2355 12.0965 22.7701 12.0978 22.2986ZM12.8422 22.31C12.8112 22.8775 13.0025 23.4348 13.3756 23.8636C13.5438 24.0479 13.7497 24.1939 13.9792 24.2918C14.2087 24.3898 14.4566 24.4373 14.7061 24.4313C14.957 24.4376 15.2064 24.3896 15.4371 24.2906C15.6677 24.1916 15.8743 24.0438 16.0425 23.8575C16.4188 23.4024 16.6072 22.8208 16.5691 22.2315C16.579 21.8325 16.5034 21.436 16.3473 21.0687C16.2097 20.7519 15.9804 20.4836 15.689 20.2983C15.3977 20.1153 15.0598 20.0204 14.7159 20.0248C14.4722 20.0211 14.2301 20.0658 14.0037 20.1561C13.7774 20.2465 13.5711 20.3808 13.3969 20.5513C13.1909 20.7919 13.0355 21.0715 12.9402 21.3736C12.8448 21.6757 12.8115 21.9939 12.8422 22.3091V22.31ZM18.4968 24.9548V19.5002H19.2184V24.3105H21.9044V24.9544L18.4968 24.9548ZM23.061 24.9548V19.5002H27.005V20.144H23.7826V21.815H26.8V22.455H23.7826V24.3111H27.1315V24.955L23.061 24.9548ZM29.7984 24.9548V20.144H28.0006V19.5002H32.3239V20.144H30.5195V24.9544L29.7984 24.9548ZM32.9895 22.2986C32.9443 21.5212 33.2068 20.7573 33.7203 20.1719C33.962 19.9181 34.2548 19.7183 34.5793 19.5859C34.9038 19.4535 35.2528 19.3914 35.6031 19.4038C36.0814 19.3972 36.5524 19.5222 36.9647 19.765C37.3654 20.0018 37.687 20.3521 37.889 20.7715C38.1068 21.2282 38.2155 21.7293 38.2067 22.2353C38.2156 22.7497 38.1009 23.2588 37.8723 23.7196C37.6642 24.1398 37.3319 24.4859 36.9205 24.7109C36.5151 24.9344 36.0592 25.0504 35.5962 25.0477C35.1114 25.0557 34.6342 24.9268 34.2194 24.6759C33.8211 24.4337 33.5022 24.0804 33.3019 23.6594C33.0949 23.2357 32.988 22.7701 32.9895 22.2986ZM33.7339 22.31C33.7029 22.8775 33.8943 23.4348 34.2673 23.8636C34.4356 24.0479 34.6414 24.1939 34.8709 24.2918C35.1005 24.3898 35.3483 24.4373 35.5978 24.4313C35.8495 24.4384 36.0997 24.3909 36.3312 24.2919C36.5627 24.193 36.7701 24.045 36.9389 23.8582C37.3152 23.4032 37.5035 22.8215 37.4653 22.2322C37.4732 21.8327 37.3952 21.4362 37.2367 21.0694C37.099 20.7527 36.8698 20.4844 36.5784 20.2991C36.2873 20.1162 35.9496 20.0212 35.6059 20.0256C35.3622 20.0219 35.1201 20.0665 34.8937 20.1569C34.6673 20.2472 34.461 20.3815 34.2868 20.5521C34.0812 20.7926 33.9262 21.0722 33.8312 21.3741C33.7362 21.676 33.7031 21.994 33.7339 22.309V22.31Z" fill="white"/>
</g>
<defs>
<clipPath id="clip0_5741_93321">
<rect width="31.7488" height="18.0834" fill="white" transform="translate(6.45834 6.96436)"/>
</clipPath>
</defs>
</svg>
