<svg width="317" height="127" viewBox="0 0 317 127" fill="none" xmlns="http://www.w3.org/2000/svg">
<path d="M44.067 27.3057V56.2045C39.9523 50.0802 33.2539 46.2526 25.1201 46.2526C11.1492 46.2526 0.718811 57.2571 0.718811 71.8022C0.718811 86.3473 11.1492 97.3518 25.1201 97.3518C33.2539 97.3518 39.9523 93.5241 44.067 87.3999V96.2035H52.2965V27.3057H44.067ZM26.6512 89.4094C16.6036 89.4094 9.13966 81.8498 9.13966 71.8022C9.13966 61.7546 16.6036 54.195 26.6512 54.195C36.6031 54.195 44.067 61.7546 44.067 71.8022C44.067 81.8498 36.6031 89.4094 26.6512 89.4094Z" fill="url(#paint0_linear_5741_93334)"/>
<path d="M105.625 71.8022C105.625 57.1614 94.7162 46.2526 80.1711 46.2526C65.5303 46.2526 54.5258 57.1614 54.5258 71.6108C54.5258 86.2516 65.9131 97.3518 81.2237 97.3518C90.6972 97.3518 98.7352 93.237 103.615 86.73L97.9697 81.8498C94.8119 86.3473 88.6876 89.7922 81.5108 89.7922C72.0373 89.7922 65.0519 83.955 63.4251 75.4384H105.434C105.529 74.2901 105.625 72.9505 105.625 71.8022ZM80.0754 53.8122C88.6876 53.8122 95.386 59.5537 96.9171 67.9745H63.3294C64.8605 59.6494 71.5589 53.8122 80.0754 53.8122Z" fill="url(#paint1_linear_5741_93334)"/>
<path d="M207.601 96.2035H215.831V47.4009H207.601V96.2035Z" fill="url(#paint2_linear_5741_93334)"/>
<path d="M254.724 97.4475H236.83C232.715 97.4475 229.94 95.2466 229.94 91.8017C229.94 89.6965 231.088 87.5913 233.002 86.3473C236.064 87.8783 239.509 88.6439 243.337 88.6439C255.968 88.6439 265.633 79.4575 265.633 67.4004C265.633 62.233 263.911 57.6398 260.848 54.0036C260.944 50.7501 263.336 48.6449 266.877 48.6449H270.131V40.9895H266.399C260.466 40.9895 256.255 44.243 255.298 49.4104C251.853 47.4009 247.834 46.2526 243.337 46.2526C230.61 46.2526 221.041 55.3433 221.041 67.4004C221.041 73.6203 223.624 79.0747 227.739 82.9024C224.007 85.0076 221.711 89.3137 221.711 93.9069C221.711 100.797 227.165 105.486 235.299 105.486H253.289C258.839 105.486 262.667 108.356 262.858 112.758L271.374 110.557C270.418 102.423 263.911 97.4475 254.724 97.4475ZM243.337 54.0993C251.184 54.0993 257.116 59.8407 257.116 67.4004C257.116 75.0557 251.184 80.7972 243.337 80.7972C235.49 80.7972 229.557 75.0557 229.557 67.4004C229.557 59.8407 235.395 54.0993 243.337 54.0993Z" fill="url(#paint3_linear_5741_93334)"/>
<path d="M272.686 40.9702H268.024L262.464 48.6813H268.741C269.731 48.6813 270.534 49.4842 270.534 50.4746V55.4958H278.783V47.0674C278.783 43.7 276.054 40.9702 272.686 40.9702Z" fill="url(#paint4_linear_5741_93334)"/>
<path d="M296.363 46.2534C288.708 46.2534 282.583 49.3155 278.756 54.8656V47.4017H270.526V96.2043H278.756V68.8366C278.756 60.033 284.689 54.1958 293.684 54.1958C302.391 54.1958 307.942 59.9373 307.942 68.6452V96.2043H316.171V66.0615C316.171 54.1001 308.229 46.2534 296.363 46.2534Z" fill="url(#paint5_linear_5741_93334)"/>
<path fill-rule="evenodd" clip-rule="evenodd" d="M206.514 30.5308H216.927C217.396 30.5308 217.847 30.7923 218.179 31.2579C218.511 31.7235 218.697 32.355 218.697 33.0135V39.2219C218.697 39.8803 218.511 40.5118 218.179 40.9774C217.847 41.443 217.396 41.7046 216.927 41.7046H214.166C213.613 41.7046 213.104 42.4576 212.65 43.1296C212.284 43.671 211.954 44.1597 211.665 44.1597C211.384 44.1597 211.087 43.6997 210.751 43.1778C210.31 42.4942 209.8 41.7046 209.17 41.7046H206.402C205.536 41.7046 204.744 40.5937 204.744 39.2219V33.0135C204.744 32.355 204.93 31.7235 205.262 31.2579C205.594 30.7923 206.044 30.5308 206.514 30.5308ZM214.329 33.5793C214.052 33.3986 213.729 33.3012 213.399 33.2985C213.13 33.2692 212.858 33.3019 212.604 33.3941C212.35 33.4862 212.12 33.6355 211.931 33.8305L211.642 34.2296L211.349 33.8305C211.157 33.6392 210.927 33.4925 210.673 33.4005C210.42 33.3086 210.149 33.2738 209.881 33.2985C209.551 33.3012 209.228 33.3986 208.951 33.5793C208.5 33.8928 208.18 34.3627 208.052 34.899C207.924 35.4352 207.996 36.0003 208.256 36.486C208.643 37.2151 210.218 38.5748 211.579 39.6094C211.599 39.6179 211.622 39.6179 211.642 39.6094C211.661 39.6171 211.682 39.6171 211.701 39.6094C213.066 38.5748 214.647 37.2151 215.024 36.486C215.285 36.0005 215.358 35.4351 215.23 34.8986C215.101 34.362 214.78 33.8921 214.329 33.5793Z" fill="url(#paint6_linear_5741_93334)"/>
<circle cx="140.354" cy="90.6708" r="26.784" fill="url(#paint7_linear_5741_93334)"/>
<g filter="url(#filter0_d_5741_93334)">
<path d="M135.137 24.2559C138.679 24.2559 141.457 24.6584 143.47 25.4635C145.563 26.1881 147.697 27.275 149.87 28.7242C151.642 29.8514 153.01 30.415 153.976 30.415C154.701 30.415 155.265 30.0124 155.667 29.2073C156.07 28.3217 156.996 30.576 157.237 28.7242H160.07C159.667 33.3939 154.758 34.9889 154.758 46.7435L156.029 49.7376C155.546 43.2162 153.654 37.7415 150.353 33.3134C147.133 28.8047 142.423 26.5504 136.224 26.5504C131.876 26.5504 128.334 27.8789 125.596 30.5357C122.859 33.1121 121.49 36.4533 121.49 40.5594C121.49 43.6188 122.175 46.2757 123.543 48.53C124.992 50.7843 126.804 52.7166 128.978 54.3268C131.152 55.937 134.251 57.99 138.277 60.4859L141.779 62.6597C146.851 65.7996 150.836 68.5772 153.735 70.9926C156.714 73.3274 159.089 76.0245 160.86 79.084C162.631 82.1434 163.517 85.7261 163.517 89.8322C163.517 97.1587 161.102 102.835 156.271 106.86C151.44 110.805 145.321 112.778 137.914 112.778C134.05 112.778 130.87 112.375 128.374 111.57C125.959 110.765 123.624 109.678 121.369 108.31C119.598 107.182 118.229 106.619 117.263 106.619C116.539 106.619 115.975 107.062 115.573 107.947C115.17 108.752 114.848 110.081 114.606 111.932H111.829C112.151 107.504 112.312 97.843 112.312 82.9485H115.09C115.653 91.0801 117.666 97.682 121.128 102.754C124.59 107.826 129.904 110.363 137.069 110.363C141.417 110.363 145.12 109.034 148.18 106.377C151.239 103.64 152.769 99.6143 152.769 94.3006C152.769 89.7919 151.239 85.9677 148.18 82.8277C145.201 79.6878 140.451 76.1453 133.929 72.2002C129.179 69.3018 125.314 66.7255 122.336 64.4712C119.437 62.2169 117.062 59.5197 115.21 56.3798C113.359 53.1594 112.433 49.4156 112.433 45.1485C112.433 38.3856 114.606 33.2329 118.954 29.6904C123.302 26.0674 128.696 24.2559 135.137 24.2559Z" fill="url(#paint8_linear_5741_93334)"/>
</g>
<circle cx="166.484" cy="44.5046" r="21.9934" fill="url(#paint9_linear_5741_93334)"/>
<mask id="mask0_5741_93334" style="mask-type:alpha" maskUnits="userSpaceOnUse" x="140" y="21" width="76" height="106">
<path d="M159.302 103.734C158.431 104.823 156.689 106.565 154.947 107.871V114.622C158.431 118.178 165.704 125.509 166.924 126.38C168.448 127.469 183.909 124.203 184.562 123.985C185.085 123.811 205.394 114.912 215.484 110.484L202.418 64.7554L208.515 34.9228L202.418 27.7368L190.877 21.2041L159.738 25.1237L140.575 37.9714L152.77 64.7554L180.643 101.556C173.82 101.919 159.999 102.863 159.302 103.734Z" fill="#D9D9D9"/>
</mask>
<g mask="url(#mask0_5741_93334)">
<g filter="url(#filter1_d_5741_93334)">
<path d="M170.646 24.2505C174.188 24.2505 176.966 24.653 178.979 25.4582C181.072 26.1828 183.206 27.2697 185.38 28.7189C187.151 29.846 188.519 30.4096 189.486 30.4096C190.21 30.4096 190.774 30.007 191.176 29.2019C191.579 28.3163 191.901 26.9476 192.142 25.0959H194.92C194.518 29.7655 194.316 37.9776 194.316 49.7323H191.539C191.056 43.2109 189.164 37.7361 185.863 33.308C182.642 28.7994 177.932 26.5451 171.733 26.5451C167.385 26.5451 163.843 27.8735 161.105 30.5304C158.368 33.1067 156.999 36.4479 156.999 40.554C156.999 43.6134 157.684 46.2703 159.052 48.5246C160.502 50.7789 162.313 52.7112 164.487 54.3214C166.661 55.9316 169.76 57.9847 173.786 60.4805L177.288 62.6543C182.36 65.7942 186.346 68.5719 189.244 70.9872C192.223 73.322 194.598 76.0192 196.369 79.0786C198.141 82.138 199.026 85.7207 199.026 89.8268C199.026 97.1533 196.611 102.829 191.78 106.855C186.949 110.8 180.831 112.772 173.424 112.772C169.559 112.772 166.379 112.37 163.883 111.565C161.468 110.76 159.133 109.673 156.879 108.304C155.107 107.177 153.739 106.613 152.773 106.613C152.048 106.613 151.484 107.056 151.082 107.942C150.679 108.747 150.357 110.075 150.116 111.927H147.338C147.66 107.499 147.821 97.8377 147.821 82.9431H150.599C151.162 91.0747 153.175 97.6767 156.637 102.749C160.099 107.821 165.413 110.357 172.578 110.357C176.926 110.357 180.629 109.029 183.689 106.372C186.748 103.634 188.278 99.6089 188.278 94.2952C188.278 89.7866 186.748 85.9623 183.689 82.8223C180.71 79.6824 175.96 76.1399 169.438 72.1949C164.688 69.2965 160.824 66.7201 157.845 64.4658C154.946 62.2115 152.571 59.5144 150.719 56.3744C148.868 53.154 147.942 49.4102 147.942 45.1431C147.942 38.3802 150.116 33.2275 154.463 29.685C158.811 26.062 164.205 24.2505 170.646 24.2505Z" fill="url(#paint10_linear_5741_93334)"/>
</g>
</g>
<path d="M90.7249 8.44079C92.2263 8.44079 93.5149 7.71966 94.2715 6.6084L93.6331 6.21828C93.0184 7.14038 91.9662 7.73148 90.7249 7.73148C88.7389 7.73148 87.2257 6.2301 87.2257 4.22039C87.2257 2.21068 88.7389 0.70931 90.7249 0.70931C91.9662 0.70931 93.0184 1.3004 93.6331 2.2225L94.2715 1.83238C93.5149 0.721132 92.2263 0 90.7249 0C88.3015 0 86.4691 1.82056 86.4691 4.22039C86.4691 6.62022 88.3015 8.44079 90.7249 8.44079Z" fill="url(#paint11_linear_5741_93334)"/>
<path d="M106.65 8.44079C109.061 8.44079 110.906 6.62022 110.906 4.22039C110.906 1.82056 109.061 0 106.65 0C104.226 0 102.394 1.82056 102.394 4.22039C102.394 6.62022 104.226 8.44079 106.65 8.44079ZM106.65 7.73148C104.664 7.73148 103.151 6.2301 103.151 4.22039C103.151 2.21068 104.664 0.70931 106.65 0.70931C108.636 0.70931 110.149 2.21068 110.149 4.22039C110.149 6.2301 108.636 7.73148 106.65 7.73148Z" fill="url(#paint12_linear_5741_93334)"/>
<path d="M126.763 0.141862L123.666 5.35529L120.568 0.141862H119.634V8.29893H120.356V1.20583L123.453 6.41925H123.855L126.952 1.20583V8.29893H127.673V0.141862H126.763Z" fill="url(#paint13_linear_5741_93334)"/>
<path d="M139.949 8.44079C141.805 8.44079 143.224 7.04581 143.224 5.18978V0.141862H142.491V5.18978C142.491 6.63205 141.403 7.73148 139.949 7.73148C138.483 7.73148 137.395 6.63205 137.395 5.18978V0.141862H136.663V5.18978C136.663 7.04581 138.081 8.44079 139.949 8.44079Z" fill="url(#paint14_linear_5741_93334)"/>
<path d="M158.17 0.141862V7.14039L152.992 0.141862H152.211V8.29893H152.933V1.3004L158.11 8.29893H158.903V0.141862H158.17Z" fill="url(#paint15_linear_5741_93334)"/>
<path d="M168.09 8.29893H168.811V0.141862H168.09V8.29893Z" fill="url(#paint16_linear_5741_93334)"/>
<path d="M181.121 0.141862H178.012V8.29893H181.121C183.461 8.29893 185.223 6.54929 185.223 4.22039C185.223 1.89149 183.461 0.141862 181.121 0.141862ZM181.109 7.61326H178.733V0.827528H181.109C183.036 0.827528 184.478 2.28161 184.478 4.22039C184.478 6.15917 183.036 7.61326 181.109 7.61326Z" fill="url(#paint17_linear_5741_93334)"/>
<path d="M199.693 8.29893H200.508L197.068 0.141862H196.193L192.753 8.29893H193.545L194.479 6.0646H198.759L199.693 8.29893ZM194.763 5.39075L196.619 0.922103L198.487 5.39075H194.763Z" fill="url(#paint18_linear_5741_93334)"/>
<path d="M212.081 0.141862H208.972V8.29893H212.081C214.422 8.29893 216.184 6.54929 216.184 4.22039C216.184 1.89149 214.422 0.141862 212.081 0.141862ZM212.07 7.61326H209.693V0.827528H212.07C213.997 0.827528 215.439 2.28161 215.439 4.22039C215.439 6.15917 213.997 7.61326 212.07 7.61326Z" fill="url(#paint19_linear_5741_93334)"/>
<path d="M225.641 7.61326V4.53958H229.779V3.85392H225.641V0.827528H230.169V0.141862H224.92V8.29893H230.228V7.61326H225.641Z" fill="url(#paint20_linear_5741_93334)"/>
<rect x="238.148" y="3.58691" width="67.0689" height="1.43463" fill="url(#paint21_linear_5741_93334)"/>
<rect width="67.0689" height="1.43463" transform="matrix(-1 0 0 1 78.5452 3.58691)" fill="url(#paint22_linear_5741_93334)"/>
<defs>
<filter id="filter0_d_5741_93334" x="108.927" y="23.012" width="57.4927" height="94.3265" filterUnits="userSpaceOnUse" color-interpolation-filters="sRGB">
<feFlood flood-opacity="0" result="BackgroundImageFix"/>
<feColorMatrix in="SourceAlpha" type="matrix" values="0 0 0 0 0 0 0 0 0 0 0 0 0 0 0 0 0 0 127 0" result="hardAlpha"/>
<feOffset dy="1.65843"/>
<feGaussianBlur stdDeviation="1.45113"/>
<feComposite in2="hardAlpha" operator="out"/>
<feColorMatrix type="matrix" values="0 0 0 0 0 0 0 0 0 0 0 0 0 0 0 0 0 0 0.45 0"/>
<feBlend mode="normal" in2="BackgroundImageFix" result="effect1_dropShadow_5741_93334"/>
<feBlend mode="normal" in="SourceGraphic" in2="effect1_dropShadow_5741_93334" result="shape"/>
</filter>
<filter id="filter1_d_5741_93334" x="145.68" y="24.2505" width="55.005" height="91.8388" filterUnits="userSpaceOnUse" color-interpolation-filters="sRGB">
<feFlood flood-opacity="0" result="BackgroundImageFix"/>
<feColorMatrix in="SourceAlpha" type="matrix" values="0 0 0 0 0 0 0 0 0 0 0 0 0 0 0 0 0 0 127 0" result="hardAlpha"/>
<feOffset dy="1.65843"/>
<feGaussianBlur stdDeviation="0.829217"/>
<feComposite in2="hardAlpha" operator="out"/>
<feColorMatrix type="matrix" values="0 0 0 0 0 0 0 0 0 0 0 0 0 0 0 0 0 0 0.25 0"/>
<feBlend mode="normal" in2="BackgroundImageFix" result="effect1_dropShadow_5741_93334"/>
<feBlend mode="normal" in="SourceGraphic" in2="effect1_dropShadow_5741_93334" result="shape"/>
</filter>
<linearGradient id="paint0_linear_5741_93334" x1="146.671" y1="-35.2443" x2="138.317" y2="119.218" gradientUnits="userSpaceOnUse">
<stop stop-color="#FFE7B6"/>
<stop offset="1" stop-color="white"/>
</linearGradient>
<linearGradient id="paint1_linear_5741_93334" x1="146.671" y1="-35.2443" x2="138.317" y2="119.218" gradientUnits="userSpaceOnUse">
<stop stop-color="#FFE7B6"/>
<stop offset="1" stop-color="white"/>
</linearGradient>
<linearGradient id="paint2_linear_5741_93334" x1="146.671" y1="-35.2443" x2="138.317" y2="119.218" gradientUnits="userSpaceOnUse">
<stop stop-color="#FFE7B6"/>
<stop offset="1" stop-color="white"/>
</linearGradient>
<linearGradient id="paint3_linear_5741_93334" x1="146.671" y1="-35.2443" x2="138.317" y2="119.218" gradientUnits="userSpaceOnUse">
<stop stop-color="#FFE7B6"/>
<stop offset="1" stop-color="white"/>
</linearGradient>
<linearGradient id="paint4_linear_5741_93334" x1="271.264" y1="30.3377" x2="267.34" y2="56.0724" gradientUnits="userSpaceOnUse">
<stop stop-color="#FFE7B6"/>
<stop offset="1" stop-color="white"/>
</linearGradient>
<linearGradient id="paint5_linear_5741_93334" x1="295.14" y1="9.69006" x2="278.741" y2="97.1703" gradientUnits="userSpaceOnUse">
<stop stop-color="#FFE7B6"/>
<stop offset="1" stop-color="white"/>
</linearGradient>
<linearGradient id="paint6_linear_5741_93334" x1="212.268" y1="20.5545" x2="208.247" y2="44.5892" gradientUnits="userSpaceOnUse">
<stop stop-color="#FFE7B6"/>
<stop offset="1" stop-color="white"/>
</linearGradient>
<linearGradient id="paint7_linear_5741_93334" x1="140.384" y1="46.7012" x2="177.558" y2="82.0614" gradientUnits="userSpaceOnUse">
<stop stop-color="#B0FFFF"/>
<stop offset="1" stop-color="#00ACA2"/>
</linearGradient>
<linearGradient id="paint8_linear_5741_93334" x1="139.702" y1="-40.541" x2="96.3526" y2="107.22" gradientUnits="userSpaceOnUse">
<stop stop-color="#FFE7B6"/>
<stop offset="1" stop-color="white"/>
</linearGradient>
<linearGradient id="paint9_linear_5741_93334" x1="166.509" y1="8.39957" x2="197.033" y2="37.4351" gradientUnits="userSpaceOnUse">
<stop stop-color="#B0FFFF"/>
<stop offset="1" stop-color="#00ACA2"/>
</linearGradient>
<linearGradient id="paint10_linear_5741_93334" x1="175.211" y1="-40.5464" x2="131.862" y2="107.215" gradientUnits="userSpaceOnUse">
<stop stop-color="#FFE7B6"/>
<stop offset="1" stop-color="white"/>
</linearGradient>
<linearGradient id="paint11_linear_5741_93334" x1="163.992" y1="-6.17853" x2="163.838" y2="9.12196" gradientUnits="userSpaceOnUse">
<stop stop-color="#FFE7B6"/>
<stop offset="1" stop-color="white"/>
</linearGradient>
<linearGradient id="paint12_linear_5741_93334" x1="163.992" y1="-6.17853" x2="163.838" y2="9.12196" gradientUnits="userSpaceOnUse">
<stop stop-color="#FFE7B6"/>
<stop offset="1" stop-color="white"/>
</linearGradient>
<linearGradient id="paint13_linear_5741_93334" x1="163.992" y1="-6.17853" x2="163.838" y2="9.12196" gradientUnits="userSpaceOnUse">
<stop stop-color="#FFE7B6"/>
<stop offset="1" stop-color="white"/>
</linearGradient>
<linearGradient id="paint14_linear_5741_93334" x1="163.992" y1="-6.17853" x2="163.838" y2="9.12196" gradientUnits="userSpaceOnUse">
<stop stop-color="#FFE7B6"/>
<stop offset="1" stop-color="white"/>
</linearGradient>
<linearGradient id="paint15_linear_5741_93334" x1="163.992" y1="-6.17853" x2="163.838" y2="9.12196" gradientUnits="userSpaceOnUse">
<stop stop-color="#FFE7B6"/>
<stop offset="1" stop-color="white"/>
</linearGradient>
<linearGradient id="paint16_linear_5741_93334" x1="163.992" y1="-6.17853" x2="163.838" y2="9.12196" gradientUnits="userSpaceOnUse">
<stop stop-color="#FFE7B6"/>
<stop offset="1" stop-color="white"/>
</linearGradient>
<linearGradient id="paint17_linear_5741_93334" x1="163.992" y1="-6.17853" x2="163.838" y2="9.12196" gradientUnits="userSpaceOnUse">
<stop stop-color="#FFE7B6"/>
<stop offset="1" stop-color="white"/>
</linearGradient>
<linearGradient id="paint18_linear_5741_93334" x1="163.992" y1="-6.17853" x2="163.838" y2="9.12196" gradientUnits="userSpaceOnUse">
<stop stop-color="#FFE7B6"/>
<stop offset="1" stop-color="white"/>
</linearGradient>
<linearGradient id="paint19_linear_5741_93334" x1="163.992" y1="-6.17853" x2="163.838" y2="9.12196" gradientUnits="userSpaceOnUse">
<stop stop-color="#FFE7B6"/>
<stop offset="1" stop-color="white"/>
</linearGradient>
<linearGradient id="paint20_linear_5741_93334" x1="163.992" y1="-6.17853" x2="163.838" y2="9.12196" gradientUnits="userSpaceOnUse">
<stop stop-color="#FFE7B6"/>
<stop offset="1" stop-color="white"/>
</linearGradient>
<linearGradient id="paint21_linear_5741_93334" x1="238.148" y1="3.58691" x2="288.215" y2="-25.5891" gradientUnits="userSpaceOnUse">
<stop stop-color="#FFE7B6"/>
<stop offset="1" stop-color="white" stop-opacity="0"/>
</linearGradient>
<linearGradient id="paint22_linear_5741_93334" x1="-7.3991e-06" y1="0.717302" x2="50.0669" y2="-28.4587" gradientUnits="userSpaceOnUse">
<stop stop-color="#FFE7B6"/>
<stop offset="1" stop-color="white" stop-opacity="0"/>
</linearGradient>
</defs>
</svg>
